{"title":"Grantchester S02E03 x264 RB58.mp4","uid":13886350,"size":526139254,"categoryP":"video","categoryS":"tv_shows","magnet":"?xt=urn:btih:2663482ba04ea499e2b8388f97fe08abb6d8727a&amp;dn=Grantchester+S02E03+x264+RB58.mp4&amp;tr=udp%3A%2F%2Ftracker.leechers-paradise.org%3A6969&amp;tr=udp%3A%2F%2Fzer0day.ch%3A1337&amp;tr=udp%3A%2F%2Fopen.demonii.com%3A1337&amp;tr=udp%3A%2F%2Ftracker.coppersurfer.tk%3A6969&amp;tr=udp%3A%2F%2Fexodus.desync.com%3A6969","seeders":3,"leechers":0,"uploader":"RedBaron58","files":1,"time":1458177117,"description":"Grantchester S02E03 x264 mp4\r\n \nhttp://www.imdb.com/title/tt3747572/\r\n\r\nTrailer (Series 1):\r\n\r\n\r\nPlease be patient My intial upload speed is limited.\r\nThank you for your kind comments and feedback on my other torrents, your feedback is welcome.\r\n\r\n\r\nAbout the Episode:\r\nA young man sat alone in the church and covered in blood confesses to Sidney and Geordie that \r\nhe attacked and killed his landlord. \r\nHowever, when the pair investigate further, they find the alleged victim alive and well with \r\nhis family. Elsewhere, Margaret's visits to the vicarage begin to leave Mrs Maguire irritated, \r\nLeonard is distracted by secretive trips to the cinema, and Geordie is compelled to deal with \r\na surprising shoplifter.\r\n \r\nStarring James Norton and Robson Green.\r\n\r\n\r\nI hope you enjoy.\r\n\r\n\r\nTechnical:\r\n\r\nGeneral\r\nComplete name                            : G:Grantchester S02E03 x264 RB58.mp4\r\nFormat                                   : MPEG-4\r\nFormat profile                           : Base Media\r\nCodec ID                                 : isom\r\nFile size                                : 502 MiB\r\nDuration                                 : 45mn 57s\r\nOverall bit rate                         : 1 526 Kbps\r\nWriting application                      : Lavf54.63.104\r\n\r\nVideo\r\nID                                       : 1\r\nFormat                                   : AVC\r\nFormat/Info                              : Advanced Video Codec\r\nFormat profile                           :   \r\nFormat settings, CABAC                   : Yes\r\nFormat settings, ReFrames                : 4 frames\r\nCodec ID                                 : avc1\r\nCodec ID/Info                            : Advanced Video Coding\r\nDuration                                 : 45mn 57s\r\nBit rate                                 : 1 400 Kbps\r\nWidth                                    : 832 pixels\r\nHeight                                   : 468 pixels\r\nDisplay aspect ratio                     : 16:9\r\nFrame rate mode                          : Constant\r\nFrame rate                               : 25.000 fps\r\nColor space                              : YUV\r\nChroma subsampling                       : 4:2:0\r\nBit depth                                : 8 bits\r\nScan type                                : Progressive\r\nBits/(Pixel*Frame)                       : 0.144\r\nStream size                              : 460 MiB (92%)\r\nWriting library                          : x264 core 123 r2189 35cf912\r\nEncoding settings                        : cabac=1 / ref=3 / deblock=1:0:0\r\n\r\nAudio\r\nID                                       : 2\r\nFormat                                   : AAC\r\nFormat/Info                              : Advanced Audio Codec\r\nFormat profile                           : LC\r\nCodec ID                                 : 40\r\nDuration                                 : 45mn 57s\r\nBit rate mode                            : Constant\r\nBit rate                                 : 117 Kbps\r\nChannel(s)                               : 2 channels\r\nChannel positions                        : Front: L R\r\nSampling rate                            : 48.0 KHz\r\nCompression mode                         : Lossy\r\nStream size                              : 38.5 MiB (8%)","torrent":{"xt":"urn:btih:2663482ba04ea499e2b8388f97fe08abb6d8727a","amp;dn":"Grantchester+S02E03+x264+RB58.mp4","amp;tr":["udp%3A%2F%2Ftracker.leechers-paradise.org%3A6969","udp%3A%2F%2Fzer0day.ch%3A1337","udp%3A%2F%2Fopen.demonii.com%3A1337","udp%3A%2F%2Ftracker.coppersurfer.tk%3A6969","udp%3A%2F%2Fexodus.desync.com%3A6969"],"infoHash":"2663482ba04ea499e2b8388f97fe08abb6d8727a","infoHashBuffer":{"type":"Buffer","data":[38,99,72,43,160,78,164,153,226,184,56,143,151,254,8,171,182,216,114,122]},"announce":[],"urlList":[]}}